<svg xmlns="http://www.w3.org/2000/svg" viewBox="0 0 24 24" fill="#1A1F71" width="24px" height="24px">
  <path d="M2 2h20v20H2z" fill="none"/>
  <path d="M21.44 8.37l1.14-3.28h-4.33c-.11.49-.33 1.07-.62 1.75-.41 1.13-.79 2.04-1.15 2.81l-.77 2.27h3.13l2.23-3.55c-.01.01 1.1-1.72 1.1-1.72l.33.01zm-3.63-3.29H8.79l-.09.37s-.59 2.78-.83 3.93h2.68l.77-2.23h3.52c.1.47.28 1.24.5 2.23h2.78l-.73-3.94c-.17-.95-.28-1.78-.33-2.36-.05-.58-.1-.83-.1-.83s-.09.08-.13.17zm-4.23 3.05c.1.3.29 1.09.29 1.09h-2.67s.23-.97.31-1.22c.09-.29.15-.43.15-.43s.36-.01.95-.01c.59 0 .97.01.97.01zM12 3.67s.01.12.01.15c.07.44.17 1.11.24 1.91h-4.2c-.2-.81-.49-1.84-.8-2.79L3.47 8.37h2.3c.24-1.4.42-2.17.42-2.17h2.87c-.06.29-.17.55-.27.8-.16.36-.31.68-.45 1H6.17L7.27 15h3.28c-.18-.35-.34-.72-.48-1.08-.2-.55-.39-1.08-.57-1.56-.18-.49-.32-.88-.44-1.18-.09-.21-.14-.34-.14-.34h2.82s.01.01.02.03c.1.26.25.6.47 1.05.31.68.61 1.33.91 1.96.08.15.15.28.22.41.15.26.29.52.43.77H21V9.16l-2.73-1.88L15.27 8.44c-.55-.91-1.02-1.63-1.44-2.14-.42-.51-.64-.67-.64-.67z"/>
</svg>
